name processed_emg_signals
nRows=75
nColumns=7
 
endheader
time	LGLTMED	LRF	LADDLONG	LBF	LTA	LGM
17.49999999999996	0.0020613540872042	0.0102703174316661	0.0054937635740495	0.0094760333783088	0.8735523023437816	0.0018213348082318
17.509999999999962	0.0020710252773118	0.0102682523357305	0.0054895550589088	0.009460094050751	0.8680882976726148	0.0018103881088261
17.51999999999996	0.0020817316193819	0.0102648990505524	0.0054850177817065	0.0094418477158241	0.8625528855933811	0.0017992980237128
17.529999999999962	0.0020934238394979	0.0102602381491076	0.0054801478172578	0.0094213015500963	0.856951755026476	0.0017880764377231
17.53999999999996	0.0021060522893257	0.0102542552115343	0.005474941801968	0.0093984671041084	0.85129080323708	0.0017767355857383
17.54999999999996	0.0021195670385502	0.0102469407637837	0.0054693969431998	0.0093733602560885	0.8455761292687062	0.0017652880377141
17.55999999999996	0.0021339179665762	0.0102382902034325	0.0054635110277592	0.0093460011556472	0.8398140269477937	0.0017537466830473
17.56999999999996	0.0021490548533537	0.0102283037131047	0.0054572824294235	0.0093164141576755	0.8340109774506415	0.0017421247142808
17.57999999999996	0.0021649274691856	0.0102169861619743	0.0054507101154371	0.0092846277467061	0.8281736414263865	0.0017304356101484
17.58999999999996	0.0021814856633799	0.0102043469958548	0.0054437936518933	0.0092506744520452	0.8223088506718769	0.001718693117965
17.59999999999996	0.0021986794516128	0.0101904001164147	0.0054365332079252	0.0092145907540124	0.8164235993563026	0.0017069112353696
17.60999999999996	0.0022164591018695	0.010175163750105	0.0054289295586285	0.0091764169816464	0.810525034795608	0.0016951041914343
17.61999999999996	0.0022347752188365	0.010158660307413	0.0054209840866418	0.00913619720224	0.8046204477789296	0.0016832864271504
17.62999999999996	0.0022535788266268	0.0101409162330839	0.0054126987823048	0.0090939791030883	0.7987172624509901	0.0016714725753087
17.639999999999958	0.0022728214497196	0.0101219618479688	0.0054040762423159	0.0090498138658519	0.7928230257553186	0.0016596774397864
17.64999999999996	0.002292455191999	0.0101018311831655	0.0053951196668177	0.0090037560339602	0.7869453964440555	0.0016479159742547
17.659999999999958	0.0023124328137723	0.0100805618071136	0.0053858328548504	0.0089558633734996	0.7810921336618857	0.0016362032603207
17.66999999999996	0.0023327078066489	0.0100581946462981	0.005376220198139	0.0089061967280378	0.7752710851142621	0.0016245544851199
17.679999999999957	0.0023532344661589	0.0100347738002006	0.0053662866732062	0.0088548198678484	0.7694901748324262	0.0016129849183761
17.68999999999996	0.0023739679619974	0.0100103463511214	0.00535603783182	0.008801799333992	0.7637573905491095	0.0016015098889464
17.699999999999957	0.0023948644057794	0.0099849621694857	0.0053454797898064	0.0087472042777085	0.7580807706994268	0.0015901447608686
17.709999999999958	0.0024158809161977	0.0099586737152436	0.0053346192142709	0.0086911062955572	0.7524683910621158	0.0015789049089314
17.719999999999956	0.002436975681478	0.0099315358359732	0.00532346330929	0.0086335792607309	0.7469283510573161	0.0015678056937913
17.729999999999958	0.0024581080190253	0.0099036055622976	0.0053120198001405	0.0085746991509489	0.7414687597184214	0.0015568624366633
17.739999999999956	0.0024792384321567	0.0098749419012149	0.005300296916139	0.0085145438733226	0.7360977213565985	0.0015460903936162
17.749999999999957	0.0025003286638177	0.0098456056279237	0.0052883033721616	0.0084531930865718	0.7308233209371763	0.0015355047295066
17.759999999999955	0.002521341747175	0.0098156590767084	0.0052760483489114	0.0083907280209651	0.7256536091879177	0.001525120491586
17.769999999999957	0.0025422420529866	0.0097851659314242	0.0052635414720064	0.0083272312963532	0.7205965874610574	0.0015149525828189
17.779999999999955	0.0025629953336559	0.0097541910161058	0.0052507927899652	0.0082627867386562	0.7156601923738227	0.0015050157349553
17.789999999999957	0.0025835687638837	0.009722800086198	0.0052378127511701	0.008197479195156	0.7108522802550674	0.0014953244814052
17.799999999999955	0.0026039309778465	0.009691059620887	0.005224612179886	0.0081313943489395	0.7061806114279133	0.0014858931299646
17.809999999999956	0.0026240521028322	0.0096590366169812	0.0052112022514093	0.0080646185328345	0.7016528343600555	0.0014767357354455
17.819999999999954	0.0026439037892721	0.0096267983847711	0.005197594466413	0.0079972385431835	0.6972764697150885	0.0014678660722646
17.829999999999956	0.0026634592371076	0.0095944123462835	0.0051838006245488	0.0079293414538063	0.6930588943402275	0.0014592976070486
17.839999999999954	0.0026826932184298	0.0095619458363457	0.0051698327973648	0.0078610144305055	0.6890073252282714	0.0014510434713154
17.849999999999955	0.0027015820963318	0.0095294659068773	0.0051557033006012	0.0077923445464708	0.6851288034945983	0.001443116434299
17.859999999999953	0.0027201038399133	0.0094970391348146	0.0051414246659333	0.0077234185989444	0.6814301784129483	0.0014355288759886
17.869999999999955	0.0027382380353787	0.0094647314340545	0.0051270096122314	0.0076543229275083	0.6779180915559366	0.0014282927604584
17.879999999999953	0.0027559658931737	0.0094326078717786	0.0051124710164106	0.0075851432343572	0.6745989610873276	0.0014214196095634
17.889999999999954	0.0027732702511098	0.0094007324894954	0.0050978218839344	0.0075159644069207	0.6714789662534695	0.001414920477081
17.899999999999952	0.0027901355734391	0.0093691681291264	0.005083075319041	0.0074468703431957	0.668564032121407	0.0014088059233732
17.909999999999954	0.0028065479458593	0.0093379762644434	0.0050682444947633	0.0073779437801456	0.665859814611347	0.0014030859906495
17.919999999999952	0.0028224950664506	0.0093072168381617	0.0050533426228222	0.0073092661255196	0.6633716858712615	0.0013977701789075
17.929999999999954	0.00283796623257	0.0092769481049743	0.0050383829234786	0.00724091729344	0.661104720041255	0.0013928674226307
17.93999999999995	0.0028529523237439	0.0092472264807986	0.0050233785954315	0.0071729755441081	0.6590636794546619	0.001388386068319
17.949999999999953	0.0028674457806252	0.0092181063984861	0.0050083427858551	0.0071055173279714	0.6572530013217884	0.0013843338529294
17.95999999999995	0.0028814405801014	0.0091896401702264	0.0049932885606681	0.0070386171346833	0.6556767849408822	0.0013807178832993
17.969999999999953	0.0028949322066599	0.0091618778568607	0.0049782288751312	0.0069723473471733	0.6543387794793629	0.0013775446166217
17.97999999999995	0.0029079176201338	0.0091348671443049	0.0049631765448687	0.0069067781011256	0.6532423723664968	0.0013748198420398
17.989999999999952	0.0029203952199566	0.0091086532272753	0.0049481442174005	0.0068419771501545	0.6523905783366664	0.0013725486634213
17.99999999999995	0.0029323648060651	0.0090832787005102	0.0049331443442751	0.0067780097369573	0.651786029160252	0.0013707354833728
18.009999999999952	0.0029438275365924	0.0090587834576839	0.0049181891538882	0.006714938470729	0.6514309640969775	0.0013693839885464
18.01999999999995	0.0029547858825093	0.009035204598209	0.0049032906250788	0.0066528232111138	0.6513272211043472	0.001368497136291
18.02999999999995	0.0029652435793837	0.0090125763421146	0.0048884604615973	0.0065917209589607	0.6514762288315693	0.0013680771426951
18.03999999999995	0.0029752055764398	0.0089909299531812	0.0048737100675359	0.0065316857541326	0.6518789994270902	0.0013681254720644
18.04999999999995	0.0029846779831116	0.0089702936704973	0.0048590505238116	0.0064727685805944	0.6525361221855458	0.0013686428278733
18.05999999999995	0.0029936680132869	0.0089506926485871	0.0048444925657755	0.0064150172789841	0.6534477580575675	0.0013696291452263
18.06999999999995	0.0030021839274504	0.0089321489062322	0.0048300465620189	0.0063584764668509	0.6546136350434605	0.0013710835848588
18.07999999999995	0.0030102349729366	0.0089146812840899	0.0048157224944339	0.0063031874667208	0.6560330444893638	0.0013730045287055
18.08999999999995	0.0030178313225191	0.0088983054111903	0.004801529939587	0.0062491882421355	0.6577048383020893	0.0013753895770587
18.099999999999948	0.0030249840115638	0.0088830336803751	0.0047874780514623	0.0061965133417895	0.6596274270964263	0.001378235547333
18.10999999999995	0.0030317048739815	0.0088688752327208	0.004773575545627	0.0061451938518748	0.6617987792862771	0.001381538474452
18.119999999999948	0.0030380064772044	0.0088558359509717	0.0047598306848704	0.0060952573567242	0.6642164211285453	0.0013852936128633
18.12999999999995	0.0030439020564139	0.0088439184619777	0.0047462512663605	0.0060467279078251	0.6668774377262787	0.0013894954401872
18.139999999999947	0.0030494054482336	0.0088331221481111	0.0047328446103494	0.0059996260012615	0.66977847499516	0.0013941376624998
18.14999999999995	0.0030545310240983	0.0088234431676068	0.0047196175504541	0.0059539685636205	0.6729157425950566	0.0013992132212468
18.159999999999947	0.0030592936235053	0.0088148744837491	0.0047065764255201	0.0059097689463865	0.676285017825987	0.0014047143017816
18.16999999999995	0.0030637084873396	0.0088074059028063	0.0046937270730712	0.0058670369288239	0.6798816504855518	0.0014106323435188
18.179999999999946	0.0030677911914643	0.0088010241205985	0.0046810748243373	0.0058257787293365	0.6837005686826049	0.0014169580516889
18.189999999999948	0.0030715575807509	0.0087957127775657	0.0046686245008483	0.00578599702527	0.6877362855996181	0.0014236814106773
18.199999999999946	0.0030750237037213	0.0087914525221806	0.0046563804125837	0.0057476909811089	0.6919829071937433	0.0014307916989275
18.209999999999948	0.0030782057479606	0.0087882210825241	0.0046443463576669	0.0057108562849993	0.696434140824002	0.0014382775053815
18.219999999999946	0.0030811199764558	0.0087859933458147	0.0046325256236004	0.0056754851935189	0.7010833047894259	0.0014461267474282
18.229999999999947	0.0030837826650064	0.0087847414456532	0.0046209209900385	0.0056415665845974	0.705923338760351	0.001454326690325
18.239999999999945	0.003086210040851	0.0087844348567224	0.0046095347330927	0.0056090860184814	0.7109468150824889	0.0014628639680535
